<svg xmlns="http://www.w3.org/2000/svg" viewBox="0 0 731.39 143.6">
  <defs>
    <style>
      .a{fill:#39b54a;}
    </style>
  </defs>
  <title>
    veriform
  </title>
  <path d="M182.4 42.2c28.8 0 48.4 21.6 48.4 53.2v5.6H159c1.6 12.2 11.4 22.4 27.8 22.4 9 0 19.6-3.6 25.8-9.6l11.2 16.4c-9.8 9-24.8 13.4-39.8 13.4-29.4 0-51.6-19.8-51.6-50.8 0-28 20.6-50.6 50-50.6zm-23.8 41.6h47.63c-.6-9.2-7-21.4-23.8-21.4-15.83 0-22.63 11.8-23.83 21.4zm90.63-39.15h25.4v13.2c6.8-8.6 18.8-15.4 30.8-15.4v24.8a33.73 33.73 0 0 0-7-.6c-8.4 0-19.6 4.6-23.8 10.8v63.8h-25.4zM318.6 15.2a15.2 15.2 0 1 1 15.19 15.2 15.31 15.31 0 0 1-15.19-15.2zm2.63 29.45h25.4v96.6h-25.4zm57.56 9.15h-16v-9.15h16v-8.8c0-19 10.2-30 26.2-30 4.8 0 9.2.8 13 3l-3.2 8.2a16.86 16.86 0 0 0-8.8-2.2c-11 0-16.8 7.6-16.8 21v8.8h19.6v9.2h-19.56v87.4h-10.4zm44 39c0-28.2 18.2-50.6 46.4-50.6 28.6 0 46.6 22.4 46.6 50.6s-18 50.85-46.56 50.85c-28.24 0-46.44-22.65-46.44-50.85zm81.8 0c0-21.4-12.6-41.2-35.4-41.2-22.4 0-35.2 19.8-35.2 41.2 0 21.6 12.8 41.4 35.2 41.4 22.8 0 35.4-19.8 35.4-41.4zm38-48.15h10.4v16.6c8.24-10.85 19.24-18.6 32.6-18.6v11.4a22 22 0 0 0-5.2-.4c-9.8 0-23 8.8-27.4 17.2v70.4h-10.4zm178.4 29c0-13.6-5.8-22-19.4-22-10.4 0-22.2 7.6-27.6 16.4v73.2h-10.6v-67.6c0-13.6-5.6-22-19.4-22-10.2 0-21.8 7.8-27.6 16.6v73h-10.4v-96.6h10.4v14.6c4-6.2 17.2-17 31.2-17 15 0 23 8.8 25.4 18.2 5.4-9 18.4-18.2 32-18.2 17.8 0 26.4 10 26.4 29.4v69.6h-10.4zM32.4 7.8H0l29.23 75.47h30.43zm21.33 60.94z"/>
  <path class="a" d="M106.2 7.8L69.4 110.4l-9.78-27.13H29.19L51.6 141.2h35.6L138.6 7.8h-32.4"/>
</svg>
