<svg xmlns="http://www.w3.org/2000/svg" version="1.2" baseProfile="tiny" viewBox="0 0 1278 416">
  <path d="M55.5 365v-40l119-156h-119v-45.5H245v38L124 319h123v46H55.5z"/>
  <path fill="#79B255" d="M289.5 244c0-73 51.5-126.5 124.5-126.5 47.5 0 75.5 20 92.5 43L472 192c-13.5-19-32-28-55.5-28-43.5 0-73 33-73 80s29.5 80.5 73 80.5c23.5 0 42-10 55.5-29l34.5 32.5c-17 22.5-45 43-92.5 43-73 0-124.5-54-124.5-127zM553 365V123.5h52.5v35c18.5-23 47.5-41 78.5-41v52c-4.5-1-9.5-1.5-16-1.5-22.5 0-52 15-62.5 32.5V365H553zm159-121c0-70 51-126.5 122.5-126.5 72.5 0 118.5 55 118.5 131v13H767c4 36 31 66.5 76.5 66.5 24 0 51.5-9.5 69-27l24 34.5c-24.5 23-60 35.5-98 35.5-73 0-126.5-50.5-126.5-127zm122-83.5c-44.5 0-65.5 34.5-67.5 63.5h136c-1.5-28.5-21-63.5-68.5-63.5zM1175 365v-33c-18.5 24-46 39-77.5 39-61.5 0-107-47-107-127 0-78 45-126.5 107-126.5 30.5 0 58.5 13.5 77.5 39.5V31.5h52.5V365H1175zm0-73v-95.5c-11.5-18-37.5-32.5-62-32.5-42 0-68.5 33.5-68.5 80 0 47 26.5 80.5 68.5 80.5 24.5 0 50.5-14.5 62-32.5z"/>
</svg>
