<svg xmlns="http://www.w3.org/2000/svg" version="1.2" baseProfile="tiny" viewBox="0 0 1000 357">
  <path d="M55.5 306v-40l119-156h-119V64.5H245v38L124 260h123v46H55.5z"/>
  <path fill="#2030B0" d="M283.5 274l24-37.5C324.5 254 358 270 389 270c31.5 0 48-13 48-32 0-47.5-146-13.5-146-106.5 0-39.5 34-73 95-73 41 0 72 14.5 93.5 33.5l-22 37c-14.5-16-41-29-71.5-29-27.5 0-44.5 13-44.5 30 0 42.5 146 10.5 146 106.5 0 43-35.5 75.5-100.5 75.5-41.5 0-78.5-13.5-103.5-38zm242-89c0-70 51-126.5 122.5-126.5 72.5 0 118.5 55 118.5 131v13h-186c4 36 31 66.5 76.5 66.5 24 0 51.5-9.5 69-27l24 34.5c-24.5 23-60 35.5-98 35.5-73 0-126.5-50.5-126.5-127zm122-83.5C603 101.5 582 136 580 165h136c-1.5-28.5-21-63.5-68.5-63.5zm171 204.5V64.5H871v35c18.5-23 47.5-41 78.5-41v52c-4.5-1-9.5-1.5-16-1.5-22.5 0-52 15-62.5 32.5V306h-52.5z"/>
</svg>
