<svg xmlns="http://www.w3.org/2000/svg" version="1.2" baseProfile="tiny" viewBox="0 0 1972 408">
  <path d="M55.5 357v-40l119-156h-119v-45.5H245v38L124 311h123v46H55.5z"/>
  <path fill="#20B0B0" d="M283.5 325l24-37.5C324.5 305 358 321 389 321c31.5 0 48-13 48-32 0-47.5-146-13.5-146-106.5 0-39.5 34-73 95-73 41 0 72 14.5 93.5 33.5l-22 37c-14.5-16-41-29-71.5-29-27.5 0-44.5 13-44.5 30 0 42.5 146 10.5 146 106.5 0 43-35.5 75.5-100.5 75.5-41.5 0-78.5-13.5-103.5-38zm242-89c0-70 51-126.5 122.5-126.5 72.5 0 118.5 55 118.5 131v13h-186c4 36 31 66.5 76.5 66.5 24 0 51.5-9.5 69-27l24 34.5c-24.5 23-60 35.5-98 35.5-73 0-126.5-50.5-126.5-127zm122-83.5C603 152.5 582 187 580 216h136c-1.5-28.5-21-63.5-68.5-63.5zM798 325l24-37.5c17 17.5 50.5 33.5 81.5 33.5 31.5 0 48-13 48-32 0-47.5-146-13.5-146-106.5 0-39.5 34-73 95-73 41 0 72 14.5 93.5 33.5l-22 37c-14.5-16-41-29-71.5-29-27.5 0-44.5 13-44.5 30 0 42.5 146 10.5 146 106.5 0 43-35.5 75.5-100.5 75.5-41.5 0-78.5-13.5-103.5-38zm236 0l24-37.5c17 17.5 50.5 33.5 81.5 33.5 31.5 0 48-13 48-32 0-47.5-146-13.5-146-106.5 0-39.5 34-73 95-73 41 0 72 14.5 93.5 33.5l-22 37c-14.5-16-41-29-71.5-29-27.5 0-44.5 13-44.5 30 0 42.5 146 10.5 146 106.5 0 43-35.5 75.5-100.5 75.5-41.5 0-78.5-13.5-103.5-38zm250.5-271.5c0-18 14.5-32.5 32.5-32.5s32.5 14.5 32.5 32.5S1335 86 1317 86s-32.5-14.5-32.5-32.5zm6 303.5V115.5h52.5V357h-52.5zm106-121c0-69.5 47-126.5 124-126.5s124 57 124 126.5c0 69-47 127-124 127s-124-58-124-127zm193.5 0c0-42.5-24.5-80-69.5-80-44.5 0-69.5 37.5-69.5 80 0 43 25 80.5 69.5 80.5 45 0 69.5-37.5 69.5-80.5zm271.5 121V206c0-38-19.5-50-49-50-26.5 0-49.5 16-62 32v169H1698V115.5h52.5V148c16-19 47.5-38.5 85.5-38.5 52 0 78 28 78 77.5v170h-52.5z"/>
</svg>
